<svg width="680" height="306" viewBox="0 0 680 306" fill="none" xmlns="http://www.w3.org/2000/svg">
<path d="M7.37443 9.63534C10.8437 6.16606 12.5783 4.43142 14.6779 4.09889C15.3559 3.99149 16.0467 3.99149 16.7247 4.09889C18.8242 4.43142 20.5589 6.16606 24.0282 9.63534V9.63534C25.5386 11.1458 26.2938 11.901 26.7642 12.8242C26.9198 13.1296 27.0512 13.4467 27.1571 13.7727C27.4773 14.7581 27.4773 15.8262 27.4773 17.9622V23.552C27.4773 25.7199 25.7198 27.4773 23.5519 27.4773V27.4773C21.384 27.4773 19.6266 25.7199 19.6266 23.552V22.2435C19.6266 20.0756 17.8692 18.3182 15.7013 18.3182V18.3182C13.5334 18.3182 11.776 20.0756 11.776 22.2435V23.552C11.776 25.7199 10.0185 27.4773 7.85065 27.4773V27.4773C5.68275 27.4773 3.92532 25.7199 3.92532 23.552V17.9622C3.92532 15.8262 3.92532 14.7581 4.24552 13.7727C4.35143 13.4467 4.48279 13.1296 4.63838 12.8242C5.1088 11.901 5.86401 11.1458 7.37443 9.63534V9.63534Z" stroke="#292556" stroke-width="1.96266" stroke-linejoin="round"/>
<path d="M87.7685 3.92529V6.54218M87.7685 3.92529C84.5166 3.92529 81.5726 5.24336 79.4416 7.3744M87.7685 3.92529C91.0201 3.92529 93.964 5.24322 96.095 7.37404M75.9925 15.7013C75.9925 12.4494 77.3106 9.50543 79.4416 7.3744M75.9925 15.7013H78.6094M75.9925 15.7013C75.9925 18.9529 77.3104 21.8968 79.4412 24.0278M79.4416 7.3744L81.2908 9.22355M96.095 7.37404C98.2262 9.5051 99.5444 12.4492 99.5444 15.7013M96.095 7.37404L94.2446 9.22446M99.5444 15.7013L96.9276 15.7013M99.5444 15.7013C99.5444 18.9531 98.2264 21.8971 96.0953 24.0281M87.7685 27.4772V24.8604M87.7685 27.4772C91.0203 27.4772 93.9643 26.1592 96.0953 24.0281M87.7685 27.4772C84.5164 27.4772 81.5723 26.159 79.4412 24.0278M96.0953 24.0281L94.2437 22.1765M79.4412 24.0278L81.2917 22.1774M87.768 13.7386V13.7386C88.8519 13.7386 89.7311 14.6173 89.7311 15.7013V15.7013C89.7311 16.7852 88.8524 17.6639 87.7685 17.6639V17.6639C86.6845 17.6639 85.8058 16.785 85.8058 15.701V15.701C85.8058 14.6173 86.6843 13.7386 87.768 13.7386V13.7386ZM87.768 13.7386V10.1404" stroke="#292556" stroke-width="1.96266" stroke-linecap="round" stroke-linejoin="round"/>
<path d="M159.153 7.58487L154.267 8.87078C153.692 9.02198 153.405 9.09758 153.187 9.27395C153.115 9.33192 153.05 9.39731 152.992 9.46902C152.815 9.68722 152.74 9.9745 152.589 10.5491L149.83 21.0328C149.125 23.7115 148.772 25.0508 149.326 25.9012C149.5 26.169 149.728 26.3974 149.996 26.5716C150.846 27.1249 152.186 26.7725 154.864 26.0676L165.348 23.3087C165.923 23.1575 166.21 23.0819 166.428 22.9055C166.5 22.8476 166.565 22.7822 166.623 22.7105C166.8 22.4923 166.875 22.205 167.026 21.6304L168.312 16.744M159.153 7.58487L168.312 16.744M159.153 7.58487L161.413 5.32492C162.107 4.63106 162.454 4.28414 162.874 4.21763C163.009 4.19615 163.148 4.19615 163.283 4.21763C163.703 4.28414 164.05 4.63106 164.744 5.32492L170.572 11.1533C171.266 11.8471 171.613 12.194 171.68 12.614C171.701 12.7496 171.701 12.8877 171.68 13.0233C171.613 13.4432 171.266 13.7902 170.572 14.484L168.312 16.744" stroke="#292556" stroke-width="1.96266" stroke-linecap="round" stroke-linejoin="round"/>
<path d="M157.354 18.5491C156.406 17.6006 156.406 16.0629 157.354 15.1144C158.303 14.166 159.84 14.166 160.789 15.1144C161.737 16.0629 161.737 17.6006 160.789 18.5491C159.84 19.4975 158.303 19.4975 157.354 18.5491ZM157.354 18.5491L153.919 21.9837" stroke="#292556" stroke-width="1.96266" stroke-linecap="round" stroke-linejoin="round"/>
<path d="M227.306 22.922L226.377 24.1585C225.935 24.7475 225.714 25.0421 225.375 25.1783C225.274 25.2189 225.139 25.2528 225.03 25.2647C224.667 25.3047 224.372 25.1676 223.782 24.8934C222.623 24.3545 221.55 23.6435 220.758 22.6962C220.633 22.5455 220.57 22.4702 220.502 22.3357C220.483 22.2988 220.457 22.237 220.442 22.1982C220.39 22.0568 220.375 21.9311 220.344 21.6795C220.236 20.8081 220.125 19.7831 220.125 18.9728C220.125 15.2872 220.859 11.6401 222.388 8.5334C222.527 8.25121 222.597 8.11012 222.724 7.97154C222.761 7.93098 222.817 7.87824 222.86 7.8434C223.006 7.72437 223.152 7.6626 223.445 7.53907C224.399 7.137 225.622 6.68707 226.685 6.31941C226.956 6.2256 227.092 6.1787 227.229 6.16181C227.639 6.11123 228.068 6.26805 228.349 6.57142C228.443 6.6727 228.519 6.80111 228.672 7.05792V7.05792C228.818 7.30288 228.891 7.42536 228.965 7.51149C229.209 7.79541 229.478 7.93239 229.851 7.96279C229.964 7.972 230.133 7.95646 230.47 7.92538C230.955 7.88073 231.45 7.85786 231.901 7.85786C232.353 7.85786 232.848 7.88073 233.332 7.92538C233.67 7.95646 233.838 7.972 233.952 7.96279C234.325 7.93239 234.594 7.79541 234.838 7.51149C234.912 7.42536 234.985 7.30288 235.13 7.05792V7.05792C235.283 6.80111 235.36 6.6727 235.453 6.57142C235.734 6.26805 236.163 6.11123 236.574 6.16181C236.711 6.1787 236.846 6.2256 237.118 6.31941C238.181 6.68707 239.403 7.137 240.357 7.53907C240.65 7.6626 240.797 7.72437 240.943 7.8434C240.985 7.87824 241.041 7.93098 241.079 7.97154C241.206 8.11012 241.275 8.25121 241.414 8.5334C242.944 11.6401 243.677 15.2872 243.677 18.9728C243.677 19.7831 243.566 20.8081 243.459 21.6795C243.428 21.9311 243.412 22.0568 243.36 22.1982C243.346 22.237 243.319 22.2988 243.301 22.3357C243.233 22.4702 243.17 22.5455 243.044 22.6962C242.253 23.6435 241.18 24.3545 240.021 24.8934C239.431 25.1676 239.136 25.3047 238.772 25.2647C238.664 25.2528 238.529 25.2189 238.428 25.1783C238.089 25.0421 237.868 24.7475 237.425 24.1585L236.497 22.922M227.306 22.922C228.768 23.3309 230.309 23.5496 231.901 23.5496C233.494 23.5496 235.035 23.3309 236.497 22.922M227.306 22.922C226.407 22.6704 225.537 22.3468 224.705 21.9577M236.497 22.922C237.396 22.6704 238.265 22.3468 239.098 21.9577M229.939 16.3551C229.939 14.9098 228.767 13.7382 227.322 13.7382C225.877 13.7382 224.705 14.9098 224.705 16.3551C224.705 17.8003 225.877 18.972 227.322 18.972C228.767 18.972 229.939 17.8003 229.939 16.3551ZM239.098 16.3551C239.098 14.9098 237.926 13.7382 236.481 13.7382C235.036 13.7382 233.864 14.9098 233.864 16.3551C233.864 17.8003 235.036 18.972 236.481 18.972C237.926 18.972 239.098 17.8003 239.098 16.3551Z" stroke="#292556" stroke-width="1.96266" stroke-linecap="round" stroke-linejoin="round"/>
<path d="M303.968 13.0845V7.85071M300.043 10.4676C298.454 11.6612 297.426 13.5611 297.426 15.7014C297.426 19.3145 300.355 22.2436 303.968 22.2436C307.581 22.2436 310.51 19.3145 310.51 15.7014C310.51 13.5613 309.483 11.6612 307.894 10.4676" stroke="#292556" stroke-width="1.96266" stroke-linecap="round" stroke-linejoin="round"/>
<path d="M292.192 15.7013C292.192 9.19758 297.464 3.92529 303.968 3.92529C310.472 3.92529 315.744 9.19758 315.744 15.7013C315.744 22.205 310.472 27.4772 303.968 27.4772C297.464 27.4772 292.192 22.205 292.192 15.7013Z" stroke="#292556" stroke-width="1.96266" stroke-linecap="round" stroke-linejoin="round"/>
<path d="M373.966 9.58808C373.751 10.7538 373.547 12.9845 373.547 14.1701C373.547 15.3556 373.601 17.6246 373.966 18.7521M373.966 9.58808L376.348 7.50119C379.31 4.9056 380.791 3.60781 382.057 3.85986C382.45 3.93826 382.82 4.10613 383.139 4.35049C384.162 5.13611 384.162 7.10542 384.162 11.044V17.2689C384.162 21.1496 384.162 23.09 383.148 23.8758C382.833 24.1201 382.465 24.2895 382.074 24.3702C380.818 24.6294 379.345 23.3685 376.399 20.8466C375.046 19.6882 374.04 18.8244 373.966 18.7521M373.966 9.58808C373.445 9.55162 371.103 9.55089 368.851 9.55963C366.984 9.56688 366.051 9.5705 365.382 10.0351C365.124 10.2144 364.899 10.4407 364.721 10.6994C364.259 11.3699 364.259 12.3068 364.259 14.1805V14.1805C364.259 16.0631 364.259 17.0044 364.724 17.6763C364.903 17.9355 365.129 18.1619 365.389 18.3409C366.061 18.8051 366.999 18.8041 368.875 18.8022C371.12 18.7999 373.446 18.7884 373.966 18.7521M366.913 18.7969L366.884 25.5093C366.879 26.5946 367.758 27.4768 368.843 27.4762V27.4762C369.925 27.4756 370.801 26.599 370.801 25.5178V18.7975M386.816 8.83733C388.143 12.8369 388.143 15.5033 386.816 19.5028" stroke="#292556" stroke-width="1.96266" stroke-linecap="round" stroke-linejoin="round"/>
<path d="M459.877 7.1964C459.877 8.41929 459.877 9.03073 459.614 9.48617C459.442 9.78453 459.194 10.0323 458.896 10.2046C458.44 10.4675 457.829 10.4675 456.606 10.4675H453.989C452.766 10.4675 452.155 10.4675 451.7 10.2046C451.401 10.0323 451.153 9.78453 450.981 9.48617C450.718 9.03073 450.718 8.41929 450.718 7.1964V7.1964C450.718 5.97351 450.718 5.36206 450.981 4.90662C451.153 4.60826 451.401 4.3605 451.7 4.18824C452.155 3.92529 452.766 3.92529 453.989 3.92529H456.606C457.829 3.92529 458.44 3.92529 458.896 4.18824C459.194 4.3605 459.442 4.60826 459.614 4.90662C459.877 5.36206 459.877 5.97351 459.877 7.1964V7.1964Z" stroke="#292556" stroke-width="1.96266" stroke-linecap="round" stroke-linejoin="round"/>
<path d="M445.484 24.2061C445.484 25.429 445.484 26.0405 445.221 26.4959C445.049 26.7943 444.801 27.042 444.503 27.2143C444.048 27.4772 443.436 27.4772 442.213 27.4772H439.596C438.374 27.4772 437.762 27.4772 437.307 27.2143C437.008 27.042 436.761 26.7943 436.588 26.4959C436.325 26.0405 436.325 25.429 436.325 24.2061V24.2061C436.325 22.9832 436.325 22.3718 436.588 21.9164C436.761 21.618 437.008 21.3702 437.307 21.198C437.762 20.935 438.374 20.935 439.596 20.935H442.213C443.436 20.935 444.048 20.935 444.503 21.198C444.801 21.3702 445.049 21.618 445.221 21.9164C445.484 22.3718 445.484 22.9832 445.484 24.2061V24.2061Z" stroke="#292556" stroke-width="1.96266" stroke-linecap="round" stroke-linejoin="round"/>
<path d="M459.877 23.9444C459.877 25.4163 459.877 26.1523 459.502 26.6682C459.381 26.8348 459.235 26.9813 459.068 27.1024C458.552 27.4772 457.816 27.4772 456.344 27.4772H454.251C452.779 27.4772 452.043 27.4772 451.527 27.1024C451.361 26.9813 451.214 26.8348 451.093 26.6682C450.718 26.1523 450.718 25.4163 450.718 23.9444V19.2341C450.718 17.7622 450.718 17.0262 451.093 16.5103C451.214 16.3437 451.361 16.1972 451.527 16.0761C452.043 15.7013 452.779 15.7013 454.251 15.7013H456.344C457.816 15.7013 458.552 15.7013 459.068 16.0761C459.235 16.1972 459.381 16.3437 459.502 16.5103C459.877 17.0262 459.877 17.7622 459.877 19.2341V23.9444Z" stroke="#292556" stroke-width="1.96266" stroke-linecap="round" stroke-linejoin="round"/>
<path d="M445.484 12.1685C445.484 13.6404 445.484 14.3763 445.11 14.8922C444.989 15.0588 444.842 15.2054 444.675 15.3264C444.159 15.7013 443.424 15.7013 441.952 15.7013L439.858 15.7013C438.386 15.7013 437.65 15.7013 437.134 15.3264C436.968 15.2054 436.821 15.0588 436.7 14.8922C436.325 14.3763 436.325 13.6404 436.325 12.1685V7.45809C436.325 5.98619 436.325 5.25025 436.7 4.73433C436.821 4.56771 436.968 4.42118 437.134 4.30013C437.65 3.92529 438.386 3.92529 439.858 3.92529H441.952C443.424 3.92529 444.159 3.92529 444.675 4.30013C444.842 4.42118 444.989 4.56771 445.11 4.73433C445.484 5.25025 445.484 5.98619 445.484 7.45809V12.1685Z" stroke="#292556" stroke-width="1.96266" stroke-linecap="round" stroke-linejoin="round"/>
<path d="M519.642 25.4839L528.393 16.7328C528.715 16.4108 528.876 16.2497 528.995 16.0598C529.035 15.9968 529.071 15.9316 529.104 15.8645C529.201 15.6625 529.253 15.4406 529.355 14.9968L529.355 14.9968L530.603 9.58857C531.115 7.36883 531.371 6.25896 530.9 5.54341C530.75 5.3173 530.557 5.12383 530.331 4.97473C529.615 4.50289 528.505 4.75902 526.286 5.27126L520.878 6.51931C520.434 6.62173 520.212 6.67294 520.01 6.77059C519.943 6.80301 519.877 6.83915 519.814 6.87885C519.625 6.9984 519.464 7.15945 519.141 7.48153L510.39 16.2326C509.33 17.2932 508.799 17.8235 508.698 18.4653C508.665 18.6726 508.665 18.8838 508.698 19.091C508.799 19.7329 509.33 20.2632 510.39 21.3238L514.551 25.4839C515.611 26.5445 516.141 27.0748 516.783 27.1764C516.991 27.2093 517.202 27.2093 517.409 27.1764C518.051 27.0748 518.581 26.5445 519.642 25.4839Z" stroke="#292556" stroke-width="1.96" stroke-linejoin="round"/>
<path d="M522.724 13.1423C523.491 13.9087 524.733 13.9087 525.5 13.1423C526.266 12.3759 526.266 11.1333 525.5 10.3669C524.733 9.60051 523.491 9.60051 522.724 10.3669C521.958 11.1333 521.958 12.3759 522.724 13.1423Z" stroke="#292556" stroke-width="1.96" stroke-linejoin="round"/>
<path d="M588.961 24.8604C588.961 25.9443 588.082 26.823 586.998 26.823C585.914 26.823 585.036 25.9443 585.036 24.8604C585.036 23.7764 585.914 22.8977 586.998 22.8977C588.082 22.8977 588.961 23.7764 588.961 24.8604Z" stroke="#292556" stroke-width="1.96266" stroke-linecap="round" stroke-linejoin="round"/>
<path d="M599.428 24.8604C599.428 25.9443 598.55 26.823 597.466 26.823C596.382 26.823 595.503 25.9443 595.503 24.8604C595.503 23.7764 596.382 22.8977 597.466 22.8977C598.55 22.8977 599.428 23.7764 599.428 24.8604Z" stroke="#292556" stroke-width="1.96266" stroke-linecap="round" stroke-linejoin="round"/>
<path d="M580.456 3.59826C579.914 3.59826 579.475 4.03762 579.475 4.57959C579.475 5.12156 579.914 5.56092 580.456 5.56092V3.59826ZM600.683 17.4943L601.556 17.9425L601.556 17.9425L600.683 17.4943ZM586.998 8.1778H599.543V6.21514H586.998V8.1778ZM602.162 12.4665L599.81 17.046L601.556 17.9425L603.908 13.363L602.162 12.4665ZM597.191 18.6453H586.998V20.608H597.191V18.6453ZM584.054 15.7013V15.0471H582.092V15.7013H584.054ZM584.054 15.0471V11.1218H582.092V15.0471H584.054ZM584.054 15.0471V7.19647H582.092V15.0471H584.054ZM586.998 18.6453C585.372 18.6453 584.054 17.3273 584.054 15.7013H582.092C582.092 18.4112 584.288 20.608 586.998 20.608V18.6453ZM599.81 17.046C599.306 18.0279 598.295 18.6453 597.191 18.6453V20.608C599.031 20.608 600.716 19.579 601.556 17.9425L599.81 17.046ZM599.543 8.1778C601.745 8.1778 603.168 10.5073 602.162 12.4665L603.908 13.363C605.584 10.0977 603.213 6.21514 599.543 6.21514V8.1778ZM584.054 7.19647C584.054 5.20923 582.443 3.59826 580.456 3.59826V5.56092C581.359 5.56092 582.092 6.29318 582.092 7.19647H584.054ZM586.998 6.21514C584.288 6.21514 582.092 8.41193 582.092 11.1218H584.054C584.054 9.49588 585.372 8.1778 586.998 8.1778V6.21514Z" fill="#292556"/>
<path d="M660.373 6.54218V6.54218C659.158 6.54218 658.55 6.54218 658.041 6.62272C655.242 7.0661 653.047 9.2616 652.603 12.061C652.523 12.5695 652.523 13.1773 652.523 14.3928V17.0097C652.523 20.6737 652.523 22.5057 653.236 23.9051C653.863 25.1361 654.864 26.137 656.095 26.7642C657.494 27.4772 659.326 27.4772 662.99 27.4772H665.607C669.271 27.4772 671.103 27.4772 672.503 26.7642C673.734 26.137 674.734 25.1361 675.362 23.9051C676.075 22.5057 676.075 20.6737 676.075 17.0097V14.3928C676.075 13.1773 676.075 12.5695 675.994 12.061C675.551 9.2616 673.355 7.0661 670.556 6.62272C670.047 6.54218 669.44 6.54218 668.224 6.54218V6.54218M660.373 6.54218V8.50484M660.373 6.54218V3.92529M660.373 6.54218H668.224M668.224 6.54218V3.92529M668.224 6.54218V8.50484M664.299 22.2435V13.0844M658.411 22.2435V13.0844M670.187 22.2435V13.0844" stroke="#292556" stroke-width="1.96266" stroke-linecap="round" stroke-linejoin="round"/>
<path d="M7.06558 81.487V81.487C5.52376 82.1878 4.75285 82.5382 4.44564 82.9754C3.96981 83.6525 3.96981 84.5553 4.44564 85.2323C4.75285 85.6695 5.52376 86.0199 7.06558 86.7207V86.7207M7.06558 81.487V81.487C5.52376 80.7861 4.75285 80.4357 4.44564 79.9986C3.96981 79.3215 3.96981 78.4187 4.44564 77.7416C4.75285 77.3044 5.52376 76.954 7.06558 76.2532L14.2394 72.9924C14.8778 72.7022 15.197 72.5571 15.534 72.5283C15.6453 72.5187 15.7573 72.5187 15.8686 72.5283C16.2055 72.5571 16.5248 72.7022 17.1632 72.9924L24.337 76.2532C25.8788 76.954 26.6497 77.3044 26.957 77.7416C27.4328 78.4187 27.4328 79.3215 26.957 79.9986C26.6497 80.4357 25.8788 80.7861 24.337 81.487V81.487M7.06558 81.487L14.2394 84.7478C14.8778 85.038 15.197 85.1831 15.534 85.2119C15.6453 85.2214 15.7573 85.2214 15.8686 85.2119C16.2055 85.1831 16.5248 85.038 17.1632 84.7478L24.337 81.487M7.06558 86.7207V86.7207C5.52376 87.4216 4.75285 87.772 4.44564 88.2091C3.96981 88.8862 3.96981 89.789 4.44564 90.4661C4.75285 90.9033 5.52376 91.2537 7.06559 91.9545L14.2394 95.2153C14.8778 95.5055 15.197 95.6506 15.534 95.6794C15.6453 95.689 15.7573 95.689 15.8686 95.6794C16.2055 95.6506 16.5248 95.5055 17.1632 95.2153L24.337 91.9545C25.8788 91.2537 26.6497 90.9033 26.957 90.4661C27.4328 89.789 27.4328 88.8862 26.957 88.2091C26.6497 87.772 25.8788 87.4216 24.337 86.7207V86.7207M7.06558 86.7207L14.2394 89.9816C14.8778 90.2718 15.197 90.4169 15.534 90.4457C15.6453 90.4552 15.7573 90.4552 15.8686 90.4457C16.2055 90.4169 16.5248 90.2718 17.1632 89.9816L24.337 86.7207M24.337 86.7207V86.7207C25.8788 86.0199 26.6497 85.6695 26.957 85.2323C27.4328 84.5553 27.4328 83.6525 26.957 82.9754C26.6497 82.5382 25.8788 82.1878 24.337 81.487V81.487" stroke="#292556" stroke-width="1.96266" stroke-linejoin="round"/>
<path d="M84.4972 84.1039C84.4972 82.2973 85.9617 80.8328 87.7683 80.8328C89.5749 80.8328 91.0394 82.2973 91.0394 84.1039C91.0394 85.9105 89.5749 87.375 87.7683 87.375C85.9617 87.375 84.4972 85.9105 84.4972 84.1039Z" stroke="#292556" stroke-width="1.96266"/>
<path d="M91.4811 93.6653C90.7662 94.4696 90.4088 94.8717 90.0494 95.1284C88.6848 96.1028 86.8519 96.1028 85.4873 95.1284C85.1278 94.8717 84.7704 94.4696 84.0555 93.6653V93.6653C83.8283 93.4096 83.7147 93.2818 83.5934 93.1668C83.1443 92.7406 82.6007 92.4268 82.0071 92.2509C81.8468 92.2034 81.6793 92.1689 81.3443 92.1V92.1C80.2903 91.883 79.7634 91.7746 79.3614 91.5916C77.8352 90.897 76.9187 89.3097 77.0803 87.6407C77.1229 87.2011 77.2924 86.6905 77.6315 85.6693V85.6693C77.7393 85.3446 77.7932 85.1823 77.8322 85.0198C77.9766 84.4177 77.9766 83.7901 77.8322 83.188C77.7932 83.0255 77.7393 82.8632 77.6315 82.5385V82.5385C77.2924 81.5173 77.1228 81.0067 77.0803 80.5671C76.9187 78.8981 77.8352 77.3108 79.3614 76.6162C79.7634 76.4332 80.2903 76.3248 81.3443 76.1078V76.1078C81.6793 76.0389 81.8468 76.0044 82.0071 75.9569C82.6007 75.781 83.1443 75.4671 83.5934 75.041C83.7147 74.926 83.8283 74.7982 84.0555 74.5425V74.5425C84.7704 73.7382 85.1278 73.3361 85.4873 73.0794C86.8519 72.105 88.6848 72.105 90.0494 73.0794C90.4088 73.3361 90.7662 73.7382 91.4811 74.5425V74.5425C91.7083 74.7982 91.822 74.926 91.9432 75.041C92.3924 75.4671 92.9359 75.781 93.5295 75.9569C93.6898 76.0044 93.8573 76.0389 94.1924 76.1078V76.1078C95.2463 76.3248 95.7733 76.4332 96.1753 76.6162C97.7014 77.3108 98.6179 78.8981 98.4563 80.5671C98.4138 81.0067 98.2442 81.5173 97.9051 82.5385V82.5385C97.7973 82.8632 97.7434 83.0255 97.7044 83.188C97.56 83.7901 97.56 84.4177 97.7044 85.0198C97.7434 85.1823 97.7973 85.3446 97.9051 85.6693V85.6693C98.2442 86.6905 98.4138 87.2011 98.4563 87.6407C98.6179 89.3097 97.7014 90.897 96.1753 91.5916C95.7733 91.7746 95.2463 91.883 94.1924 92.1V92.1C93.8573 92.1689 93.6898 92.2034 93.5295 92.2509C92.9359 92.4268 92.3924 92.7406 91.9432 93.1668C91.822 93.2818 91.7083 93.4096 91.4811 93.6653V93.6653Z" stroke="#292556" stroke-width="1.96266"/>
<path d="M155.909 90.6461C155.909 92.0914 154.737 93.263 153.292 93.263C151.847 93.263 150.675 92.0914 150.675 90.6461M155.909 90.6461C155.909 89.2009 154.737 88.0292 153.292 88.0292C151.847 88.0292 150.675 89.2009 150.675 90.6461M155.909 90.6461H163.759M150.675 90.6461V90.6461C149.23 90.6461 148.058 89.4745 148.058 88.0292V79.6552C148.058 77.6927 148.058 76.7114 148.558 76.0235C148.719 75.8014 148.915 75.606 149.137 75.4446C149.825 74.9448 150.806 74.9448 152.768 74.9448H155.778C157.74 74.9448 158.722 74.9448 159.41 75.4446C159.632 75.606 159.827 75.8014 159.989 76.0235C160.488 76.7114 160.488 77.6927 160.488 79.6552V81.487V81.487C160.488 80.2677 160.488 79.6581 160.687 79.1772C160.953 78.5359 161.463 78.0265 162.104 77.7609C162.585 77.5617 163.194 77.5617 164.414 77.5617H165.428C166.683 77.5617 167.311 77.5617 167.843 77.8142C168.018 77.897 168.183 77.999 168.335 78.1182C168.799 78.4814 169.079 79.0428 169.641 80.1655L171.113 83.1093C171.333 83.5491 171.443 83.769 171.509 84.003C171.532 84.0808 171.55 84.1596 171.565 84.2391C171.61 84.4783 171.61 84.7242 171.61 85.2159V88.0292C171.61 89.4745 170.438 90.6461 168.993 90.6461V90.6461M168.993 90.6461C168.993 92.0914 167.822 93.263 166.376 93.263C164.931 93.263 163.759 92.0914 163.759 90.6461M168.993 90.6461C168.993 89.2009 167.822 88.0292 166.376 88.0292C164.931 88.0292 163.759 89.2009 163.759 90.6461M163.759 80.8328H166.376L168.012 84.1039H163.759V80.8328Z" stroke="#292556" stroke-width="1.96266" stroke-linecap="round" stroke-linejoin="round"/>
<path d="M227.321 72.3279L225.358 78.8701M236.48 72.3279L238.443 78.8701M226.667 84.1039V90.6461M231.9 84.1039V90.6461M237.134 84.1039V90.6461M229.112 95.8798H234.689C236.737 95.8798 237.761 95.8798 238.629 95.6048C240.082 95.1444 241.3 94.1383 242.026 92.7983C242.46 91.9979 242.654 90.9923 243.04 88.9811V88.9811C243.586 86.1431 243.859 84.7241 243.626 83.5808C243.234 81.6613 241.913 80.0623 240.102 79.3151C239.023 78.8701 237.579 78.8701 234.689 78.8701H229.112C226.222 78.8701 224.777 78.8701 223.699 79.3151C221.888 80.0623 220.567 81.6613 220.175 83.5808C219.942 84.7241 220.215 86.1431 220.76 88.9811V88.9811C221.147 90.9923 221.341 91.9979 221.775 92.7983C222.501 94.1383 223.719 95.1444 225.172 95.6048C226.04 95.8798 227.064 95.8798 229.112 95.8798Z" stroke="#292556" stroke-width="1.96266" stroke-linecap="round" stroke-linejoin="round"/>
<path d="M292.191 84.1038C292.191 81.0556 292.191 79.5314 292.689 78.3291C293.353 76.7261 294.626 75.4525 296.229 74.7885C297.432 74.2905 298.956 74.2905 302.004 74.2905H305.929C308.978 74.2905 310.502 74.2905 311.704 74.7885C313.307 75.4525 314.581 76.7261 315.245 78.3291C315.743 79.5314 315.743 81.0556 315.743 84.1038V84.1038C315.743 87.1521 315.743 88.6763 315.245 89.8785C314.581 91.4816 313.307 92.7552 311.704 93.4192C310.502 93.9172 308.978 93.9172 305.929 93.9172H302.004C298.956 93.9172 297.432 93.9172 296.229 93.4192C294.626 92.7552 293.353 91.4816 292.689 89.8785C292.191 88.6763 292.191 87.1521 292.191 84.1038V84.1038Z" stroke="#292556" stroke-width="1.96266" stroke-linejoin="round"/>
<path d="M292.191 78.8701L296.738 82.4062C299.812 84.7973 301.349 85.9928 303.105 86.2263C303.677 86.3024 304.257 86.3024 304.83 86.2262C306.586 85.9927 308.123 84.7971 311.197 82.4059L315.743 78.8701" stroke="#292556" stroke-width="1.96266" stroke-linejoin="round"/>
<path d="M387.809 86.4591V82.0685C387.809 81.5285 387.809 81.2585 387.789 81.0308C387.568 78.5006 385.562 76.4945 383.032 76.2731C382.804 76.2532 382.534 76.2532 381.994 76.2532H381.703C381.462 76.2532 381.267 76.0579 381.267 75.8171C381.267 73.89 379.705 72.3279 377.778 72.3279H374.289C372.362 72.3279 370.799 73.89 370.799 75.8171C370.799 76.0579 370.604 76.2532 370.363 76.2532H370.073C369.533 76.2532 369.263 76.2532 369.035 76.2731C366.505 76.4945 364.499 78.5006 364.277 81.0308C364.257 81.2585 364.257 81.5285 364.257 82.0685V86.459C364.257 90.3841 364.257 92.3466 365.257 93.7224C365.58 94.1667 365.97 94.5575 366.415 94.8803C367.79 95.8798 369.753 95.8798 373.678 95.8798H378.388C382.313 95.8798 384.276 95.8798 385.652 94.8803C386.096 94.5575 386.487 94.1667 386.81 93.7224C387.809 92.3466 387.809 90.3841 387.809 86.4591Z" stroke="#292556" stroke-width="1.96266" stroke-linejoin="round"/>
<path d="M372.108 85.4124C372.108 83.2445 373.865 81.4871 376.033 81.4871V81.4871C378.201 81.4871 379.959 83.2445 379.959 85.4124V85.4124C379.959 87.5803 378.201 89.3377 376.033 89.3377V89.3377C373.865 89.3377 372.108 87.5803 372.108 85.4124V85.4124Z" stroke="#292556" stroke-width="1.96266" stroke-linejoin="round"/>
<path d="M448.1 84.1039H459.876M459.876 84.1039L456.604 80.8328M459.876 84.1039L456.604 87.375M452.025 79.5243V79.3935C452.025 76.4497 452.025 74.9778 451.275 73.946C451.033 73.6127 450.74 73.3197 450.407 73.0776C449.375 72.3279 447.903 72.3279 444.959 72.3279H443.389C440.445 72.3279 438.974 72.3279 437.942 73.0776C437.608 73.3197 437.315 73.6127 437.073 73.946C436.324 74.9778 436.324 76.4497 436.324 79.3935V88.8142C436.324 91.758 436.324 93.2299 437.073 94.2618C437.315 94.595 437.608 94.888 437.942 95.1302C438.974 95.8798 440.445 95.8798 443.389 95.8798H444.959C447.903 95.8798 449.375 95.8798 450.407 95.1302C450.74 94.888 451.033 94.595 451.275 94.2618C452.025 93.2299 452.025 91.758 452.025 88.8142V88.6834" stroke="#292556" stroke-width="1.96266" stroke-linecap="round" stroke-linejoin="round"/>
<path d="M522.521 72.3279H517.811C513.886 72.3279 511.923 72.3279 510.547 73.3274C510.103 73.6503 509.712 74.041 509.39 74.4853C508.39 75.8611 508.39 77.8236 508.39 81.7487V86.459C508.39 90.3841 508.39 92.3466 509.39 93.7224C509.712 94.1667 510.103 94.5575 510.547 94.8803C511.923 95.8798 513.886 95.8798 517.811 95.8798H522.521C526.446 95.8798 528.409 95.8798 529.784 94.8803C530.229 94.5575 530.62 94.1667 530.942 93.7224C531.942 92.3466 531.942 90.3841 531.942 86.459V81.7487C531.942 77.8236 531.942 75.8611 530.942 74.4853C530.62 74.041 530.229 73.6503 529.784 73.3274C528.409 72.3279 526.446 72.3279 522.521 72.3279Z" stroke="#292556" stroke-width="1.96266" stroke-linecap="round" stroke-linejoin="round"/>
<path d="M517.654 79.8515C517.654 78.4062 518.825 77.2346 520.271 77.2346C521.716 77.2346 522.888 78.4062 522.888 79.8515C522.888 81.2968 521.716 82.4684 520.271 82.4684C518.825 82.4684 517.654 81.2968 517.654 79.8515Z" stroke="#292556" stroke-width="1.96266" stroke-linejoin="round"/>
<path d="M522.261 85.7394H518.071C516.183 85.7394 514.493 86.9105 513.83 88.6783C513.414 89.7887 514.234 90.9731 515.42 90.9731H524.911C526.097 90.9731 526.918 89.7887 526.502 88.6783C525.839 86.9105 524.149 85.7394 522.261 85.7394Z" stroke="#292556" stroke-width="1.96266" stroke-linejoin="round"/>
<path d="M599.843 75.4536V75.4536C599.972 73.7675 598.639 72.3279 596.948 72.3279H587.517C585.826 72.3279 584.492 73.7675 584.622 75.4536V75.4536M599.843 75.4536L599.276 82.8147C598.993 86.4954 595.924 89.3376 592.232 89.3376V89.3376M599.843 75.4536V75.4536C602.396 75.4536 604.367 77.7004 604.035 80.2325L603.911 81.1711C603.592 83.5979 601.524 85.4123 599.076 85.4123V85.4123M584.622 75.4536L585.188 82.8147C585.471 86.4954 588.541 89.3376 592.232 89.3376V89.3376M584.622 75.4536V75.4536C582.068 75.4536 580.097 77.7004 580.43 80.2325L580.553 81.1711C580.872 83.5979 582.941 85.4123 585.388 85.4123V85.4123M592.232 89.3376V91.9545M592.232 91.9545L595.129 93.6924C596.423 94.4691 597.071 94.8574 597.067 95.2322C597.066 95.3463 597.035 95.4581 596.977 95.5565C596.787 95.8798 596.033 95.8798 594.523 95.8798H589.942C588.432 95.8798 587.677 95.8798 587.488 95.5565C587.43 95.4581 587.399 95.3463 587.398 95.2322C587.394 94.8574 588.041 94.4691 589.336 93.6924L592.232 91.9545Z" stroke="#292556" stroke-width="1.96266" stroke-linejoin="round"/>
<path d="M591.176 77.7387C591.581 76.9182 591.783 76.508 592.087 76.4391C592.182 76.4176 592.281 76.4176 592.376 76.4391C592.68 76.508 592.883 76.9182 593.288 77.7387L593.496 78.1605C593.615 78.4017 593.674 78.5223 593.77 78.6073C593.802 78.6354 593.836 78.6602 593.873 78.6817C593.983 78.7467 594.116 78.766 594.383 78.8047L594.848 78.8723C595.753 79.0039 596.206 79.0697 596.366 79.3378C596.415 79.4215 596.446 79.5153 596.455 79.6123C596.483 79.923 596.156 80.2423 595.501 80.8809L595.164 81.2093C594.971 81.397 594.875 81.4909 594.824 81.6085C594.807 81.6472 594.794 81.6875 594.785 81.7287C594.757 81.854 594.78 81.9865 594.825 82.2516L594.905 82.7152C595.059 83.617 595.137 84.0679 594.931 84.3024C594.867 84.3757 594.787 84.4337 594.697 84.4721C594.411 84.5953 594.006 84.3824 593.196 83.9566L592.78 83.7377C592.542 83.6126 592.423 83.55 592.295 83.5376C592.253 83.5335 592.211 83.5335 592.168 83.5376C592.041 83.55 591.922 83.6126 591.684 83.7377L591.267 83.9566C590.458 84.3824 590.053 84.5953 589.766 84.4721C589.676 84.4337 589.597 84.3757 589.532 84.3024C589.327 84.0679 589.404 83.617 589.559 82.7152L589.638 82.2516C589.684 81.9865 589.706 81.854 589.679 81.7287C589.67 81.6875 589.657 81.6472 589.64 81.6085C589.588 81.4909 589.492 81.397 589.3 81.2093L588.963 80.8809C588.308 80.2423 587.98 79.923 588.009 79.6123C588.017 79.5153 588.048 79.4215 588.098 79.3378C588.257 79.0697 588.71 79.0039 589.615 78.8723L590.081 78.8047C590.347 78.766 590.48 78.7467 590.591 78.6817C590.627 78.6602 590.661 78.6354 590.693 78.6073C590.789 78.5223 590.848 78.4017 590.968 78.1605L591.176 77.7387Z" fill="#292556"/>
<path d="M664.299 74.9448C668.54 74.9448 672.261 78.0227 674.64 80.61C675.695 81.7585 676.223 82.3328 676.402 83.5224C676.445 83.8137 676.445 84.3942 676.402 84.6854C676.223 85.875 675.695 86.4493 674.64 87.5978C672.261 90.1851 668.54 93.263 664.299 93.263C660.058 93.263 656.337 90.1851 653.958 87.5978C652.902 86.4493 652.374 85.875 652.196 84.6854C652.152 84.3942 652.152 83.8137 652.196 83.5224C652.374 82.3328 652.902 81.7585 653.958 80.61C656.337 78.0227 660.058 74.9448 664.299 74.9448Z" stroke="#292556" stroke-width="1.96266" stroke-linejoin="round"/>
<path d="M668.224 84.1039C668.224 86.2718 666.467 88.0292 664.299 88.0292C662.131 88.0292 660.373 86.2718 660.373 84.1039C660.373 81.936 662.131 80.1786 664.299 80.1786C666.467 80.1786 668.224 81.936 668.224 84.1039Z" stroke="#292556" stroke-width="1.96266" stroke-linejoin="round"/>
<path d="M24.8604 149.89V151.198C24.8604 156.256 20.7597 160.357 15.7013 160.357V160.357M6.54221 149.89V151.198C6.54221 156.256 10.6429 160.357 15.7013 160.357V160.357M15.7013 160.357V164.282M15.7013 156.432V156.432C18.5918 156.432 20.9351 154.089 20.9351 151.198V145.964C20.9351 143.074 18.5918 140.73 15.7013 140.73V140.73C12.8108 140.73 10.4675 143.074 10.4675 145.964V151.198C10.4675 154.089 12.8108 156.432 15.7013 156.432Z" stroke="#292556" stroke-width="1.96266" stroke-linecap="round" stroke-linejoin="round"/>
<path d="M91.693 159.049H83.8423M91.693 159.049V160.357C91.693 161.576 91.693 162.186 91.4938 162.667C91.2282 163.308 90.7188 163.818 90.0776 164.083C89.5966 164.282 88.987 164.282 87.7677 164.282V164.282C86.5484 164.282 85.9387 164.282 85.4578 164.083C84.8166 163.818 84.3071 163.308 84.0415 162.667C83.8423 162.186 83.8423 161.576 83.8423 160.357V159.049M91.693 159.049V157.731C91.693 157.312 91.8248 156.903 92.0697 156.563L94.2946 153.473C98.1251 148.152 94.3233 140.73 87.7677 140.73V140.73C81.212 140.73 77.4102 148.152 81.2407 153.473L83.4657 156.563C83.7106 156.903 83.8423 157.312 83.8423 157.731V159.049M85.805 151.852L87.7677 155.123L89.7303 151.852" stroke="#292556" stroke-width="1.96266" stroke-linecap="round" stroke-linejoin="round"/>
<path d="M148.058 153.815V154.862C148.058 158.787 148.058 160.749 149.058 162.125C149.38 162.569 149.771 162.96 150.216 163.283C151.591 164.282 153.554 164.282 157.479 164.282H162.189C166.114 164.282 168.077 164.282 169.453 163.283C169.897 162.96 170.288 162.569 170.61 162.125C171.61 160.749 171.61 158.787 171.61 154.862V153.815M148.058 153.815V153.815C148.058 151.376 148.058 150.157 148.457 149.195C148.988 147.913 150.007 146.894 151.289 146.363C152.251 145.964 153.47 145.964 155.909 145.964H163.759C166.198 145.964 167.417 145.964 168.379 146.363C169.662 146.894 170.68 147.913 171.212 149.195C171.61 150.157 171.61 151.376 171.61 153.815V153.815M148.058 153.815H171.61M157.217 149.89H162.451M154.6 145.964V145.964C154.6 143.074 156.944 140.73 159.834 140.73V140.73C162.725 140.73 165.068 143.074 165.068 145.964V145.964" stroke="#292556" stroke-width="1.96266" stroke-linecap="round" stroke-linejoin="round"/>
<path d="M238.443 147.059C240.401 151.199 240.401 153.816 238.443 157.957M241.134 144.335C244.523 148.422 244.523 156.595 241.134 160.681M225.357 147.927L224.703 147.927C222.865 147.927 221.946 147.927 221.286 148.368C221 148.559 220.755 148.804 220.564 149.09C220.123 149.75 220.123 150.669 220.123 152.507V152.507C220.123 154.344 220.123 155.263 220.564 155.923C220.755 156.209 221 156.454 221.286 156.645C221.946 157.086 222.865 157.086 224.703 157.086L225.357 157.086M225.357 147.927V157.086M225.357 147.927L227.674 146.228C230.559 144.112 232.001 143.055 233.197 143.358C233.572 143.453 233.92 143.63 234.218 143.875C235.17 144.66 235.17 146.449 235.17 150.026V154.987C235.17 158.564 235.17 160.353 234.218 161.138C233.92 161.383 233.572 161.56 233.197 161.655C232.001 161.958 230.559 160.901 227.674 158.785L225.357 157.086" stroke="#292556" stroke-width="1.96266" stroke-linecap="round" stroke-linejoin="round"/>
<path d="M303.967 164.282C310.471 164.282 315.743 159.01 315.743 152.506C315.743 146.003 310.471 140.73 303.967 140.73C297.463 140.73 292.191 146.003 292.191 152.506C292.191 159.01 297.463 164.282 303.967 164.282Z" stroke="#292556" stroke-width="1.96266" stroke-linejoin="round"/>
<path d="M307.404 153.487C307.99 153.096 308.283 152.901 308.336 152.635C308.352 152.55 308.352 152.464 308.336 152.379C308.283 152.113 307.99 151.918 307.404 151.527L302.854 148.493C302.144 148.02 301.789 147.784 301.499 147.866C301.408 147.891 301.324 147.936 301.252 147.998C301.023 148.194 301.023 148.62 301.023 149.473L301.023 155.54C301.023 156.393 301.023 156.819 301.252 157.015C301.324 157.077 301.408 157.122 301.499 157.147C301.789 157.229 302.144 156.993 302.854 156.52L307.404 153.487Z" stroke="#292556" stroke-width="1.96266" stroke-linejoin="round"/>
<path d="M364.851 150.932C364.499 148.605 364.322 147.441 364.616 147.014C364.909 146.589 365.426 146.375 365.934 146.47C366.443 146.565 367.139 147.515 368.531 149.413V149.413C369.241 150.381 369.596 150.865 369.987 150.998C370.381 151.131 370.815 151.069 371.156 150.83C371.495 150.594 371.7 150.03 372.11 148.901L373.82 144.2C374.634 141.961 375.041 140.841 375.717 140.673C375.924 140.621 376.142 140.621 376.35 140.673C377.025 140.841 377.432 141.961 378.247 144.2L379.956 148.901C380.366 150.03 380.571 150.594 380.91 150.83C381.251 151.069 381.685 151.131 382.079 150.998C382.471 150.865 382.826 150.381 383.535 149.413V149.413C384.928 147.515 385.624 146.565 386.133 146.47C386.641 146.375 387.157 146.589 387.451 147.014C387.744 147.441 387.568 148.605 387.215 150.932L385.799 160.278C385.543 161.968 385.415 162.813 384.912 163.388C384.749 163.575 384.559 163.738 384.35 163.871C383.706 164.282 382.851 164.282 381.142 164.282H370.925C369.215 164.282 368.36 164.282 367.716 163.871C367.507 163.738 367.318 163.575 367.154 163.388C366.651 162.813 366.523 161.968 366.267 160.278L364.851 150.932Z" stroke="#292556" stroke-width="1.96266" stroke-linejoin="round"/>
<path d="M373.416 157.086C373.416 155.641 374.588 154.469 376.033 154.469V154.469C377.478 154.469 378.65 155.641 378.65 157.086V157.086C378.65 158.531 377.478 159.703 376.033 159.703V159.703C374.588 159.703 373.416 158.531 373.416 157.086V157.086Z" stroke="#292556" stroke-width="1.96266" stroke-linejoin="round"/>
<path d="M444.174 152.793L441.557 149.317L442.765 147.92C443.381 147.209 443.688 146.853 444.083 146.63C444.213 146.557 444.349 146.494 444.491 146.444C444.917 146.291 445.388 146.291 446.328 146.291H448.1M441.471 143.848L439.074 146.395C437.912 147.629 437.332 148.246 437.188 148.991C437.141 149.233 437.129 149.481 437.151 149.727C437.221 150.482 437.738 151.154 438.772 152.497L444.367 159.763C445.881 161.728 446.638 162.711 447.624 162.894C447.938 162.952 448.261 162.952 448.576 162.894C449.561 162.711 450.318 161.728 451.832 159.763L457.427 152.497C458.461 151.154 458.978 150.482 459.048 149.727C459.07 149.481 459.058 149.233 459.011 148.991C458.868 148.246 458.287 147.629 457.125 146.395L454.728 143.848C454.118 143.2 453.813 142.876 453.433 142.673C453.307 142.606 453.176 142.55 453.041 142.504C452.633 142.366 452.188 142.366 451.298 142.366H444.901C444.011 142.366 443.566 142.366 443.158 142.504C443.023 142.55 442.892 142.606 442.766 142.673C442.386 142.876 442.081 143.2 441.471 143.848Z" stroke="#292556" stroke-width="1.96266" stroke-linecap="round" stroke-linejoin="round"/>
<path d="M528.671 145.31C528.671 146.033 528.085 146.619 527.362 146.619C526.64 146.619 526.054 146.033 526.054 145.31C526.054 144.588 526.64 144.002 527.362 144.002C528.085 144.002 528.671 144.588 528.671 145.31Z" fill="#292556"/>
<path d="M508.39 150.151C508.39 146.226 508.39 144.264 509.39 142.888C509.712 142.444 510.103 142.053 510.547 141.73C511.923 140.73 513.886 140.73 517.811 140.73H522.521C526.446 140.73 528.409 140.73 529.784 141.73C530.229 142.053 530.62 142.444 530.942 142.888C531.942 144.264 531.942 146.226 531.942 150.151V154.862C531.942 158.787 531.942 160.749 530.942 162.125C530.62 162.569 530.229 162.96 529.784 163.283C528.409 164.282 526.446 164.282 522.521 164.282H517.811C513.886 164.282 511.923 164.282 510.547 163.283C510.103 162.96 509.712 162.569 509.39 162.125C508.39 160.749 508.39 158.787 508.39 154.862V150.151Z" stroke="#292556" stroke-width="1.96266" stroke-linejoin="round"/>
<path d="M525.4 152.506C525.4 155.397 523.056 157.74 520.166 157.74C517.275 157.74 514.932 155.397 514.932 152.506C514.932 149.616 517.275 147.273 520.166 147.273C523.056 147.273 525.4 149.616 525.4 152.506Z" stroke="#292556" stroke-width="1.96266" stroke-linejoin="round"/>
<path d="M590.27 143.347V140.73M590.27 143.347H594.195M590.27 143.347H586.344V143.347C584.538 143.347 583.073 144.812 583.073 146.618V146.618V150.544M594.195 143.347V140.73M594.195 143.347H598.12V143.347C599.927 143.347 601.391 144.812 601.391 146.618V146.618V150.544M601.391 150.544H604.008M601.391 150.544V154.469M601.391 154.469H604.008M601.391 154.469V158.394V158.394C601.391 160.201 599.927 161.666 598.12 161.666V161.666H594.195M594.195 161.666V164.282M594.195 161.666H590.27M590.27 161.666V164.282M590.27 161.666H586.344V161.666C584.538 161.666 583.073 160.201 583.073 158.394V158.394V154.469M583.073 154.469H580.456M583.073 154.469V150.544M583.073 150.544H580.456M593.933 147.273H590.531C589.059 147.273 588.324 147.273 587.808 147.648C587.641 147.769 587.494 147.915 587.373 148.082C586.999 148.598 586.999 149.334 586.999 150.805V154.207C586.999 155.679 586.999 156.415 587.373 156.931C587.494 157.098 587.641 157.244 587.808 157.365C588.324 157.74 589.059 157.74 590.531 157.74H593.933C595.405 157.74 596.141 157.74 596.657 157.365C596.824 157.244 596.97 157.098 597.091 156.931C597.466 156.415 597.466 155.679 597.466 154.207V150.805C597.466 149.334 597.466 148.598 597.091 148.082C596.97 147.915 596.824 147.769 596.657 147.648C596.141 147.273 595.405 147.273 593.933 147.273Z" stroke="#292556" stroke-width="1.96266" stroke-linecap="round" stroke-linejoin="round"/>
<path d="M655.14 144.656V155.123C655.14 157.559 655.14 158.776 655.46 159.762C656.107 161.754 657.668 163.315 659.66 163.962C660.646 164.282 661.863 164.282 664.299 164.282V164.282C666.734 164.282 667.952 164.282 668.937 163.962C670.929 163.315 672.49 161.754 673.138 159.762C673.458 158.776 673.458 157.559 673.458 155.123V144.656M655.14 144.656H652.523M655.14 144.656H660.373M673.458 144.656H676.075M673.458 144.656H668.224M660.373 144.656V144.656C660.373 143.436 660.373 142.827 660.573 142.346C660.838 141.705 661.348 141.195 661.989 140.93C662.47 140.73 663.079 140.73 664.299 140.73V140.73C665.518 140.73 666.128 140.73 666.609 140.93C667.25 141.195 667.759 141.705 668.025 142.346C668.224 142.827 668.224 143.436 668.224 144.656V144.656M660.373 144.656H668.224M661.028 149.235V158.394M667.57 149.235V158.394" stroke="#292556" stroke-width="1.96266" stroke-linecap="round" stroke-linejoin="round"/>
<path d="M13.2181 212.292L7.37464 218.135C5.65027 219.859 4.78809 220.722 4.38969 221.683C3.85849 222.966 3.85849 224.407 4.38969 225.689C4.78809 226.651 5.65027 227.513 7.37464 229.237V229.237C9.09901 230.962 9.9612 231.824 10.923 232.222C12.2054 232.754 13.6463 232.754 14.9288 232.222C15.8906 231.824 16.7528 230.962 18.4771 229.237L24.3206 223.394M13.2181 212.292V212.292C14.6686 210.841 15.3939 210.116 16.1785 209.732C17.6289 209.023 19.3254 209.023 20.7758 209.732C21.5604 210.116 22.2857 210.841 23.7362 212.292L24.3206 212.876C25.7711 214.326 26.4964 215.052 26.8799 215.836C27.589 217.287 27.589 218.983 26.8799 220.434C26.4964 221.218 25.7711 221.944 24.3206 223.394V223.394M13.2181 212.292L24.3206 223.394" stroke="#292556" stroke-width="1.96266" stroke-linecap="round" stroke-linejoin="round"/>
<path d="M79.4382 229.236C81.5692 231.367 84.5132 232.685 87.7651 232.685C94.2688 232.685 99.5411 227.413 99.5411 220.909C99.5411 217.657 98.223 214.713 96.0919 212.582M79.4382 229.236C77.3072 227.105 75.9891 224.161 75.9891 220.909C75.9891 214.405 81.2614 209.133 87.7651 209.133C91.0169 209.133 93.9609 210.451 96.0919 212.582M79.4382 229.236C79.4382 229.236 89.7792 218.895 96.0919 212.582" stroke="#292556" stroke-width="1.96266" stroke-linecap="round" stroke-linejoin="round"/>
<path d="M148.058 220.909C148.058 216.212 151.866 212.404 156.563 212.404H163.105C167.802 212.404 171.61 216.212 171.61 220.909V220.909C171.61 225.606 167.802 229.414 163.105 229.414H156.563C151.866 229.414 148.058 225.606 148.058 220.909V220.909Z" stroke="#292556" stroke-width="1.96266" stroke-linejoin="round"/>
<path d="M152.638 220.909C152.638 218.741 154.395 216.984 156.563 216.984V216.984C158.731 216.984 160.488 218.741 160.488 220.909V220.909C160.488 223.077 158.731 224.834 156.563 224.834V224.834C154.395 224.834 152.638 223.077 152.638 220.909V220.909Z" stroke="#292556" stroke-width="1.96266" stroke-linejoin="round"/>
<path d="M228.66 217.669L231.898 220.907M231.898 220.907L235.136 224.145M231.898 220.907L228.66 224.145M231.898 220.907L235.136 217.669" stroke="#292556" stroke-width="1.96266" stroke-linecap="round" stroke-linejoin="round"/>
<path d="M220.124 220.909C220.124 214.405 225.397 209.133 231.9 209.133C238.404 209.133 243.676 214.405 243.676 220.909C243.676 227.413 238.404 232.685 231.9 232.685C225.397 232.685 220.124 227.413 220.124 220.909Z" stroke="#292556" stroke-width="1.96266" stroke-linecap="round" stroke-linejoin="round"/>
<path d="M292.215 214.244L293.196 214.238C293.196 214.207 293.195 214.175 293.191 214.143L292.215 214.244ZM310.639 232.661L310.74 231.685C310.708 231.681 310.676 231.68 310.645 231.679L310.639 232.661ZM297.497 218.292L297.342 217.323C297.029 217.373 296.758 217.572 296.618 217.857C296.477 218.143 296.483 218.478 296.634 218.758L297.497 218.292ZM306.589 227.381L306.124 228.244C306.404 228.395 306.739 228.401 307.024 228.26C307.309 228.12 307.508 227.849 307.558 227.536L306.589 227.381ZM304.654 208.152C304.113 208.141 303.665 208.572 303.654 209.114C303.644 209.656 304.074 210.104 304.616 210.114L304.654 208.152ZM312.5 212.37L311.806 213.064L311.806 213.064L312.5 212.37ZM314.757 220.25C314.767 220.792 315.215 221.223 315.757 221.212C316.299 221.202 316.73 220.754 316.719 220.212L314.757 220.25ZM310.65 219.769C310.679 220.311 311.141 220.726 311.682 220.697C312.224 220.668 312.639 220.206 312.61 219.664L310.65 219.769ZM305.196 212.271C304.655 212.243 304.194 212.659 304.166 213.2C304.138 213.741 304.554 214.203 305.095 214.231L305.196 212.271ZM304.812 216.253C304.271 216.286 303.859 216.751 303.892 217.292C303.925 217.833 304.391 218.245 304.932 218.212L304.812 216.253ZM306.668 219.946C306.635 220.487 307.046 220.953 307.587 220.986C308.128 221.019 308.593 220.608 308.627 220.067L306.668 219.946ZM294.226 211.229C295.631 209.825 297.91 209.825 299.315 211.229L300.702 209.841C298.531 207.67 295.01 207.67 292.838 209.841L294.226 211.229ZM299.315 211.229C300.72 212.634 300.72 214.911 299.315 216.315L300.702 217.703C302.874 215.532 302.874 212.012 300.702 209.841L299.315 211.229ZM308.567 225.564C309.972 224.16 312.25 224.16 313.656 225.564L315.043 224.176C312.871 222.005 309.351 222.005 307.179 224.176L308.567 225.564ZM313.656 225.564C315.061 226.969 315.061 229.246 313.656 230.65L315.043 232.038C317.215 229.867 317.215 226.347 315.043 224.176L313.656 225.564ZM298.852 226.026C295.155 222.33 293.217 217.888 293.196 214.238L291.234 214.25C291.258 218.529 293.49 223.441 297.464 227.414L298.852 226.026ZM293.191 214.143C293.084 213.101 293.429 212.026 294.226 211.229L292.838 209.841C291.606 211.073 291.074 212.74 291.239 214.345L293.191 214.143ZM313.656 230.65C312.859 231.447 311.782 231.792 310.74 231.685L310.539 233.637C312.143 233.802 313.811 233.27 315.043 232.038L313.656 230.65ZM310.645 231.679C306.993 231.659 302.549 229.722 298.852 226.026L297.464 227.414C301.439 231.387 306.352 233.618 310.633 233.642L310.645 231.679ZM299.315 216.315C298.757 216.872 298.065 217.208 297.342 217.323L297.652 219.261C298.769 219.083 299.843 218.563 300.702 217.703L299.315 216.315ZM302.09 222.789C300.536 221.235 299.286 219.542 298.361 217.826L296.634 218.758C297.652 220.647 299.018 222.493 300.703 224.177L302.09 222.789ZM307.558 227.536C307.674 226.814 308.009 226.122 308.567 225.564L307.179 224.176C306.319 225.036 305.799 226.109 305.62 227.226L307.558 227.536ZM307.055 226.517C305.338 225.592 303.645 224.343 302.09 222.789L300.703 224.177C302.388 225.862 304.234 227.226 306.124 228.244L307.055 226.517ZM304.616 210.114C307.335 210.167 309.89 211.149 311.806 213.064L313.193 211.676C310.882 209.365 307.825 208.214 304.654 208.152L304.616 210.114ZM311.806 213.064C313.722 214.979 314.704 217.533 314.757 220.25L316.719 220.212C316.657 217.042 315.505 213.987 313.193 211.676L311.806 213.064ZM309.036 215.845C310.02 216.828 310.565 218.178 310.65 219.769L312.61 219.664C312.504 217.681 311.809 215.842 310.424 214.457L309.036 215.845ZM305.095 214.231C306.693 214.313 308.049 214.859 309.036 215.845L310.424 214.457C309.033 213.067 307.187 212.374 305.196 212.271L305.095 214.231ZM304.932 218.212C305.544 218.174 305.983 218.343 306.26 218.62L307.647 217.232C306.88 216.465 305.84 216.19 304.812 216.253L304.932 218.212ZM306.26 218.62C306.536 218.896 306.705 219.335 306.668 219.946L308.627 220.067C308.69 219.038 308.414 217.998 307.647 217.232L306.26 218.62Z" fill="#292556"/>
<path d="M372.108 211.75H369.638C367.13 211.75 365.876 211.75 365.212 212.197C364.402 212.744 363.964 213.697 364.076 214.668C364.168 215.462 364.984 216.415 366.617 218.319V218.319C367.336 219.158 367.695 219.577 367.858 220.037C368.057 220.601 368.057 221.217 367.858 221.781C367.695 222.241 367.336 222.661 366.617 223.499V223.499C364.984 225.403 364.168 226.356 364.076 227.151C363.964 228.122 364.402 229.074 365.212 229.621C365.876 230.068 367.13 230.068 369.638 230.068H372.108M372.108 211.75H382.428C384.936 211.75 386.191 211.75 386.854 212.197C387.664 212.744 388.103 213.697 387.99 214.668C387.898 215.462 387.082 216.415 385.449 218.319V218.319C384.731 219.158 384.372 219.577 384.209 220.037C384.01 220.601 384.01 221.217 384.209 221.781C384.372 222.241 384.731 222.661 385.449 223.499V223.499C387.082 225.403 387.898 226.356 387.99 227.151C388.103 228.122 387.664 229.074 386.854 229.621C386.191 230.068 384.936 230.068 382.428 230.068H372.108M372.108 211.75V215.021M372.108 218.946V220.909M372.108 230.068V224.834" stroke="#292556" stroke-width="1.96266" stroke-linecap="round" stroke-linejoin="round"/>
<path d="M445.324 223.685C446.034 224.395 447.016 224.834 448.1 224.834C449.184 224.834 450.165 224.395 450.875 223.685M445.324 223.685C444.614 222.974 444.174 221.993 444.174 220.909C444.174 219.825 444.614 218.844 445.324 218.133M445.324 223.685L439.773 229.236M450.875 223.685C451.586 222.974 452.025 221.993 452.025 220.909C452.025 219.825 451.586 218.844 450.875 218.133M450.875 223.685L456.426 229.236M450.875 218.133C450.165 217.423 449.184 216.984 448.1 216.984C447.016 216.984 446.034 217.423 445.324 218.133M450.875 218.133L456.426 212.582M445.324 218.133L439.773 212.582M439.773 212.582C437.642 214.713 436.324 217.657 436.324 220.909C436.324 224.161 437.642 227.105 439.773 229.236M439.773 212.582C441.904 210.451 444.848 209.133 448.1 209.133C451.351 209.133 454.295 210.451 456.426 212.582M456.426 212.582C458.557 214.713 459.876 217.657 459.876 220.909C459.876 224.161 458.557 227.105 456.426 229.236M456.426 229.236C454.295 231.367 451.351 232.685 448.1 232.685C444.848 232.685 441.904 231.367 439.773 229.236" stroke="#292556" stroke-width="1.96266" stroke-linecap="round" stroke-linejoin="round"/>
<path d="M513.624 227.451V227.451C510.733 227.451 508.39 225.108 508.39 222.218V218.947C508.39 215.892 508.39 214.364 509.008 213.208C509.496 212.295 510.244 211.548 511.157 211.06C512.313 210.442 513.84 210.442 516.895 210.442H523.437C526.492 210.442 528.019 210.442 529.175 211.06C530.088 211.548 530.836 212.295 531.324 213.208C531.942 214.364 531.942 215.892 531.942 218.947V218.947C531.942 222.001 531.942 223.529 531.324 224.685C530.836 225.598 530.088 226.345 529.175 226.833C528.019 227.451 526.492 227.451 523.437 227.451H520.166" stroke="#292556" stroke-width="1.96266" stroke-linecap="round" stroke-linejoin="round"/>
<path d="M521.474 216.984H514.932M525.4 220.909H514.932" stroke="#292556" stroke-width="1.96266" stroke-linecap="round" stroke-linejoin="round"/>
<path d="M513.624 227.451L512.315 231.376L520.166 227.451" stroke="#292556" stroke-width="1.96266" stroke-linecap="round" stroke-linejoin="round"/>
<path d="M601.064 220.909C601.064 221.451 600.625 221.89 600.083 221.89C599.541 221.89 599.102 221.451 599.102 220.909C599.102 220.367 599.541 219.928 600.083 219.928C600.625 219.928 601.064 220.367 601.064 220.909Z" fill="#292556"/>
<path d="M580.483 216.984H603.982M594.195 220.909H596.812M589.877 231.377H594.588C598.513 231.377 600.475 231.377 601.851 230.377C602.295 230.054 602.686 229.664 603.009 229.219C604.008 227.844 604.008 225.881 604.008 221.956V219.862C604.008 215.937 604.008 213.975 603.009 212.599C602.686 212.155 602.295 211.764 601.851 211.441C600.475 210.442 598.513 210.442 594.588 210.442H589.877C585.952 210.442 583.99 210.442 582.614 211.441C582.169 211.764 581.779 212.155 581.456 212.599C580.456 213.975 580.456 215.937 580.456 219.862V221.956C580.456 225.881 580.456 227.844 581.456 229.219C581.779 229.664 582.169 230.054 582.614 230.377C583.99 231.377 585.952 231.377 589.877 231.377Z" stroke="#292556" stroke-width="1.96266" stroke-linecap="round" stroke-linejoin="round"/>
<path d="M654.753 230.455C658.56 234.262 665.921 233.075 671.193 227.803C676.465 222.531 677.652 215.171 673.845 211.363M654.753 230.455C650.945 226.647 652.132 219.287 657.404 214.015C662.676 208.743 670.037 207.556 673.845 211.363M654.753 230.455C669.602 226.212 664.299 212.424 673.845 211.363" stroke="#292556" stroke-width="1.96266"/>
<path d="M20.3287 278.479C19.4332 278.096 18.9854 277.905 18.48 278.11C18.3393 278.167 18.1594 278.286 18.0515 278.393C17.664 278.777 17.664 279.345 17.664 280.481V287.349H24.5312C25.6676 287.349 26.2358 287.349 26.6198 286.961C26.7267 286.853 26.8454 286.673 26.9026 286.533C27.1079 286.027 26.9163 285.579 26.5333 284.684C25.3429 281.901 23.1115 279.67 20.3287 278.479Z" stroke="#292556" stroke-width="1.96266" stroke-linejoin="round"/>
<path d="M3.92532 289.311C3.92532 295.815 9.19761 301.087 15.7013 301.087C20.8498 301.087 25.2265 297.783 26.827 293.18C27.1324 292.302 27.2851 291.863 27.0677 291.386C27.0067 291.252 26.8868 291.083 26.7805 290.982C26.4013 290.62 25.8593 290.62 24.7755 290.62H16.7481C15.7668 290.62 15.2762 290.62 14.9322 290.37C14.8211 290.289 14.7234 290.191 14.6427 290.08C14.3929 289.736 14.3929 289.246 14.3929 288.265L14.3929 280.237C14.3929 279.153 14.3929 278.611 14.0309 278.232C13.9294 278.126 13.7607 278.006 13.627 277.945C13.1499 277.728 12.7108 277.88 11.8326 278.186C7.22927 279.786 3.92532 284.163 3.92532 289.311Z" stroke="#292556" stroke-width="1.96266" stroke-linejoin="round"/>
<path d="M87.7677 301.089C93.8745 301.089 98.8956 296.44 99.4857 290.489L99.5436 289.308H98.3658C95.2267 289.272 94.3668 288.919 93.3796 285.5L93.0014 284.078L91.6526 284.66C87.7582 286.043 85.7886 283.975 87.1941 279.18L87.7677 277.536L86.0341 277.663C80.3523 278.502 75.9917 283.398 75.9917 289.313C75.9917 295.816 81.264 301.089 87.7677 301.089Z" stroke="#292556" stroke-width="1.96266" stroke-linejoin="round"/>
<path d="M83.8423 284.078C83.8423 284.801 83.2565 285.386 82.5339 285.386C81.8113 285.386 81.2255 284.801 81.2255 284.078C81.2255 283.355 81.8113 282.77 82.5339 282.77C83.2565 282.77 83.8423 283.355 83.8423 284.078Z" fill="#292556"/>
<path d="M82.5339 290.62C82.5339 291.343 81.9481 291.929 81.2255 291.929C80.5028 291.929 79.917 291.343 79.917 290.62C79.917 289.898 80.5028 289.312 81.2255 289.312C81.9481 289.312 82.5339 289.898 82.5339 290.62Z" fill="#292556"/>
<path d="M89.0761 289.312C89.0761 290.034 88.4903 290.62 87.7677 290.62C87.045 290.62 86.4592 290.034 86.4592 289.312C86.4592 288.589 87.045 288.003 87.7677 288.003C88.4903 288.003 89.0761 288.589 89.0761 289.312Z" fill="#292556"/>
<path d="M87.7677 295.854C87.7677 296.577 87.1819 297.162 86.4592 297.162C85.7366 297.162 85.1508 296.577 85.1508 295.854C85.1508 295.131 85.7366 294.546 86.4592 294.546C87.1819 294.546 87.7677 295.131 87.7677 295.854Z" fill="#292556"/>
<path d="M94.3099 294.546C94.3099 295.268 93.7241 295.854 93.0014 295.854C92.2788 295.854 91.693 295.268 91.693 294.546C91.693 293.823 92.2788 293.237 93.0014 293.237C93.7241 293.237 94.3099 293.823 94.3099 294.546Z" fill="#292556"/>
<path d="M161.143 277.536V278.321C161.143 281.264 161.143 282.736 161.892 283.768C162.134 284.101 162.427 284.395 162.761 284.637C163.792 285.386 165.264 285.386 168.208 285.386L168.993 285.386M168.993 287.005V294.022C168.993 296.966 168.993 298.438 168.244 299.47C168.001 299.803 167.708 300.096 167.375 300.338C166.343 301.088 164.871 301.088 161.928 301.088H157.741C154.797 301.088 153.325 301.088 152.293 300.338C151.96 300.096 151.667 299.803 151.425 299.47C150.675 298.438 150.675 296.966 150.675 294.022L150.675 284.601C150.675 281.657 150.675 280.186 151.425 279.154C151.667 278.82 151.96 278.527 152.293 278.285C153.325 277.536 154.797 277.536 157.741 277.536L159.524 277.536C160.806 277.536 161.447 277.536 162.038 277.728C162.234 277.791 162.424 277.87 162.607 277.963C163.161 278.246 163.614 278.699 164.52 279.605L166.924 282.008C167.83 282.915 168.283 283.368 168.565 283.922C168.659 284.105 168.738 284.295 168.801 284.491C168.993 285.082 168.993 285.723 168.993 287.005Z" stroke="#292556" stroke-width="1.96266" stroke-linejoin="round"/>
<path d="M161.142 289.966H154.6M165.068 293.891H154.6" stroke="#292556" stroke-width="1.96266" stroke-linecap="round" stroke-linejoin="round"/>
<path d="M238.93 285.399C238.93 286.69 237.85 287.736 236.517 287.736C235.185 287.736 234.105 286.69 234.105 285.399C234.105 284.109 235.185 283.062 236.517 283.062C237.85 283.062 238.93 284.109 238.93 285.399Z" stroke="#292556" stroke-width="1.96266"/>
<path d="M229.97 285.399C229.97 286.69 228.89 287.736 227.558 287.736C226.225 287.736 225.145 286.69 225.145 285.399C225.145 284.109 226.225 283.062 227.558 283.062C228.89 283.062 229.97 284.109 229.97 285.399Z" stroke="#292556" stroke-width="1.96266"/>
<path d="M230.659 293.41C230.659 294.701 229.579 295.747 228.247 295.747C226.914 295.747 225.834 294.701 225.834 293.41C225.834 292.12 226.914 291.074 228.247 291.074C229.579 291.074 230.659 292.12 230.659 293.41Z" stroke="#292556" stroke-width="1.96266"/>
<path d="M243.674 286.249C243.531 280.314 234.902 276.599 228.618 277.742C222.334 278.884 219.294 285.076 220.321 291.074C221.319 296.905 227.902 301.088 232.037 301.088C236.173 301.088 239.619 299.085 236.711 296.698C235.902 296.071 235.244 295.282 234.78 294.385C234.085 293.038 235.343 291.116 236.891 291.249C240.032 291.517 243.786 290.877 243.674 286.249Z" stroke="#292556" stroke-width="1.96266"/>
<path d="M305.722 287.615H309.692M305.722 287.615V283.645M305.722 287.615L301.007 292.33M301.007 292.33H306.962M301.007 292.33L301.007 286.374M301.007 292.33L296.54 296.797C294.792 298.545 293.813 299.523 293.605 301.088M296.511 296.768V296.768C299.8 300.057 305.133 300.057 308.422 296.768L313.385 291.804C316.675 288.515 316.675 283.182 313.385 279.893V279.893C310.096 276.604 304.763 276.604 301.474 279.893L296.511 284.856C293.222 288.145 293.222 293.478 296.511 296.768Z" stroke="#292556" stroke-width="1.96266" stroke-linecap="round" stroke-linejoin="round"/>
<path d="M369.491 284.078V284.078C369.491 280.465 372.42 277.536 376.033 277.536H378.65M376.033 293.891V293.891C377.479 293.891 378.65 292.72 378.65 291.274V291.274C378.65 289.829 377.479 288.657 376.033 288.657V288.657C374.588 288.657 373.416 289.829 373.416 291.274V291.274C373.416 292.72 374.588 293.891 376.033 293.891V293.891ZM376.033 293.891V297.162M372.762 301.088H379.304C382.359 301.088 383.886 301.088 385.043 300.47C385.956 299.982 386.703 299.234 387.191 298.321C387.809 297.165 387.809 295.637 387.809 292.583V292.583C387.809 289.528 387.809 288.001 387.191 286.844C386.703 285.932 385.956 285.184 385.043 284.696C383.886 284.078 382.359 284.078 379.304 284.078H372.762C369.707 284.078 368.18 284.078 367.024 284.696C366.111 285.184 365.363 285.932 364.875 286.844C364.257 288.001 364.257 289.528 364.257 292.583V292.583C364.257 295.637 364.257 297.165 364.875 298.321C365.363 299.234 366.111 299.982 367.024 300.47C368.18 301.088 369.707 301.088 372.762 301.088Z" stroke="#292556" stroke-width="1.96266" stroke-linecap="round" stroke-linejoin="round"/>
<path d="M448.1 295.854C454.603 295.854 459.876 292.925 459.876 289.312C459.876 286.734 457.191 284.504 453.291 283.438M448.1 295.854C446.22 295.854 444.442 295.609 442.866 295.174M448.1 295.854V301.088M442.908 283.438C439.008 284.504 436.324 286.734 436.324 289.312C436.324 291.88 438.988 294.103 442.866 295.174M442.908 283.438C443.236 286.013 446.791 286.695 448.1 286.695C449.408 286.695 452.963 286.013 453.291 283.438M442.908 283.438C442.88 283.219 442.866 282.996 442.866 282.769C442.866 279.879 445.209 277.536 448.1 277.536C450.99 277.536 453.333 279.879 453.333 282.769C453.333 282.996 453.319 283.219 453.291 283.438M442.866 295.174L438.94 299.125M453.333 295.2L457.259 299.125" stroke="#292556" stroke-width="1.96266" stroke-linecap="round" stroke-linejoin="round"/>
<path d="M520.166 301.088C526.67 301.088 531.942 295.815 531.942 289.312C531.942 287.687 531.613 286.14 531.018 284.732M520.166 301.088C513.662 301.088 508.39 295.815 508.39 289.312C508.39 287.687 508.719 286.14 509.314 284.732M520.166 301.088C523.322 298.975 525.4 293.395 525.4 289.312C525.4 285.229 523.322 279.648 520.166 277.536M520.166 301.088C517.01 298.975 514.932 293.395 514.932 289.312C514.932 285.229 517.01 279.648 520.166 277.536M520.166 277.536C515.287 277.536 511.1 280.503 509.314 284.732M520.166 277.536C525.045 277.536 529.232 280.503 531.018 284.732M509.314 284.732C511.1 288.961 515.287 291.928 520.166 291.928C525.045 291.928 529.232 288.961 531.018 284.732" stroke="#292556" stroke-width="1.96266" stroke-linejoin="round"/>
<path d="M590.924 285.386C590.924 286.47 590.045 287.349 588.961 287.349C587.877 287.349 586.999 286.47 586.999 285.386C586.999 284.302 587.877 283.424 588.961 283.424C590.045 283.424 590.924 284.302 590.924 285.386Z" fill="#292556"/>
<path d="M597.466 285.386C597.466 286.47 596.587 287.349 595.503 287.349C594.419 287.349 593.541 286.47 593.541 285.386C593.541 284.302 594.419 283.424 595.503 283.424C596.587 283.424 597.466 284.302 597.466 285.386Z" fill="#292556"/>
<path d="M586.237 291.274C587.247 293.585 589.552 295.2 592.235 295.2C594.918 295.2 597.223 293.585 598.233 291.274M604.008 289.312C604.008 295.815 598.736 301.088 592.232 301.088C585.729 301.088 580.456 295.815 580.456 289.312C580.456 282.808 585.729 277.536 592.232 277.536C598.736 277.536 604.008 282.808 604.008 289.312Z" stroke="#292556" stroke-width="1.96266" stroke-linecap="round" stroke-linejoin="round"/>
<path d="M673.726 278.847C671.732 278.902 667.233 279.376 663.833 282.32C663.68 282.452 663.604 282.518 663.526 282.556C663.498 282.569 663.474 282.579 663.445 282.588C663.363 282.615 663.27 282.62 663.085 282.63L657.866 282.901C656.039 282.996 654.606 284.506 654.606 286.335C654.606 288.177 656.058 289.692 657.898 289.771L659.164 289.825C659.245 289.828 659.285 289.83 659.324 289.836C659.433 289.854 659.535 289.899 659.622 289.967C659.653 289.992 659.681 290.02 659.739 290.078L663.529 293.868C663.587 293.926 663.615 293.954 663.64 293.985C663.708 294.072 663.753 294.174 663.771 294.283C663.777 294.322 663.779 294.362 663.782 294.443L663.836 295.709C663.915 297.549 665.43 299.001 667.272 299.001C669.101 299.001 670.61 297.568 670.706 295.741L670.977 290.522C670.987 290.337 670.992 290.244 671.019 290.161C671.028 290.132 671.038 290.109 671.051 290.081C671.089 290.003 671.155 289.927 671.287 289.774C674.231 286.374 674.704 281.875 674.76 279.881C674.771 279.486 674.777 279.288 674.648 279.109C674.611 279.058 674.549 278.996 674.498 278.959C674.319 278.83 674.121 278.836 673.726 278.847Z" stroke="#292556" stroke-width="1.96266" stroke-linejoin="round"/>
<path d="M653.831 298.845C653.832 299.171 653.832 299.334 653.957 299.505C653.99 299.551 654.056 299.617 654.101 299.65C654.273 299.775 654.435 299.775 654.761 299.775C655.87 299.777 657.787 299.567 659.09 298.265C659.155 298.199 659.22 298.13 659.283 298.059C660.138 297.089 659.77 295.664 658.856 294.75V294.75C657.942 293.836 656.517 293.468 655.548 294.323C655.476 294.386 655.407 294.451 655.341 294.517C654.039 295.819 653.83 297.737 653.831 298.845Z" stroke="#292556" stroke-width="1.96266" stroke-linejoin="round"/>
<path d="M664.402 289.204C665.04 289.842 666.074 289.842 666.712 289.204V289.204C667.351 288.566 667.351 287.531 666.712 286.893V286.893C666.074 286.255 665.04 286.255 664.402 286.893V286.893C663.764 287.531 663.764 288.566 664.402 289.204V289.204Z" stroke="#292556" stroke-width="1.96266" stroke-linejoin="round"/>
</svg>
